<?xml version="1.0" encoding="utf-8"?>
<!-- Generator: Adobe Illustrator 23.1.1, SVG Export Plug-In . SVG Version: 6.00 Build 0)  -->
<svg version="1.1" id="Layer_1" xmlns="http://www.w3.org/2000/svg" xmlns:xlink="http://www.w3.org/1999/xlink" x="0px" y="0px"
	 viewBox="0 0 341.5 56.6" style="enable-background:new 0 0 341.5 56.6;" xml:space="preserve">
<style type="text/css">
	.st0{fill:url(#SVGID_1_);}
	.st1{fill:url(#SVGID_2_);}
	.st2{fill:url(#SVGID_3_);}
	.st3{fill:url(#SVGID_4_);}
	.st4{fill:url(#SVGID_5_);}
	.st5{fill:url(#SVGID_6_);}
	.st6{fill:url(#SVGID_7_);}
	.st7{fill:url(#SVGID_8_);}
	.st8{fill:url(#SVGID_9_);}
</style>
<title>Untitled-2</title>
<g>
	
		<linearGradient id="SVGID_1_" gradientUnits="userSpaceOnUse" x1="-21.7938" y1="4.3188" x2="281.6276" y2="83.9356" gradientTransform="matrix(1 0 0 -1 0 55.89)">
		<stop  offset="0" style="stop-color:#7CBF00"/>
		<stop  offset="1" style="stop-color:#04A51D"/>
	</linearGradient>
	<path class="st0" d="M57.9,4.2c-0.5-1.1-1.6-1.8-2.8-1.8l0,0c-1.2,0-2.3,0.7-2.8,1.8L32,50.4c-0.8,1.7,0,3.7,1.7,4.5
		c0.4,0.2,0.9,0.3,1.4,0.3c1.4,0,2.6-0.8,3.1-2.1l5.5-13h23.2L72.2,53c0.7,1.7,2.7,2.5,4.5,1.8s2.5-2.7,1.8-4.5L57.9,4.2z
		 M47.6,33.2c0,0,7.5-18.8,7.7-19.9c0.1,0.2,7.7,19.9,7.7,19.9H47.6z"/>
	
		<linearGradient id="SVGID_2_" gradientUnits="userSpaceOnUse" x1="-25.1208" y1="16.9983" x2="278.3005" y2="96.6151" gradientTransform="matrix(1 0 0 -1 0 55.89)">
		<stop  offset="0" style="stop-color:#7CBF00"/>
		<stop  offset="1" style="stop-color:#04A51D"/>
	</linearGradient>
	<path class="st1" d="M26.1,7.5c1.6-0.2,2.8-1.8,2.5-3.4c-0.2-1.3-1.2-2.4-2.5-2.5H4.3C1.9,1.5,0,3.5,0,5.8v45
		c0,2.4,1.9,4.3,4.3,4.3h21.8c1.7,0,3-1.3,3-3l0,0v-0.4c0-1.7-1.3-3-3-3h-19V29.2h19c1.7,0,3-1.3,3-3c0.1-1.7-1.2-3.1-2.8-3.1
		c-0.1,0-0.1,0-0.2,0h-19V7.5H26.1z"/>
	
		<linearGradient id="SVGID_3_" gradientUnits="userSpaceOnUse" x1="-19.8065" y1="-3.2545" x2="283.6148" y2="76.3622" gradientTransform="matrix(1 0 0 -1 0 55.89)">
		<stop  offset="0" style="stop-color:#7CBF00"/>
		<stop  offset="1" style="stop-color:#04A51D"/>
	</linearGradient>
	<path class="st2" d="M114.2,38.9c-0.2-2-0.9-3.9-1.9-5.6c-1.1-1.8-2.5-3.4-4.2-4.5c-0.9-0.6-2-1.2-3-1.7c-1.1-0.5-2.2-1-3.3-1.5
		l-0.6-0.3c-1.4-0.6-2.9-1.3-4.4-2c-1.5-0.8-2.9-1.7-4.2-2.9c-0.8-0.6-1.4-1.3-1.9-2.1c-0.5-0.8-0.9-1.7-1-2.6
		c-0.1-0.2-0.1-0.4-0.1-0.7c0-0.2,0-0.5,0-0.7v-0.5c0.2-2,1.2-3.9,2.7-5.2c1.6-1.5,3.7-2.4,5.9-2.4h0.3c1.9,0,3.7,0.5,5.3,1.5
		c0.7,0.5,1.3,1,1.9,1.6c1,1,2.5,1.2,3.7,0.5c0.9-0.5,1.5-1.4,1.7-2.4c0.2-0.9-0.1-1.9-0.8-2.5c-0.8-0.9-1.8-1.6-2.8-2.2
		c-2.5-1.4-5.3-2.3-8.1-2.4c-0.2-0.1-0.4-0.1-0.7-0.1h-1.9c-2.2,0.2-4.3,0.7-6.3,1.5c-1.9,0.8-3.6,1.9-4.9,3.4
		c-0.9,1-1.7,2.1-2.2,3.4c-0.6,1.3-1,2.6-1.2,4c0,0.4-0.1,0.8-0.1,1.1s-0.1,0.7-0.1,1c0,0.1,0,0.3,0,0.5c0,0.1,0,0.3,0.1,0.4
		l0.1,0.3c0,0.1,0,0.3,0,0.4c0,0.2,0.1,0.5,0.1,0.7c0.4,2.7,1.7,5.1,3.8,6.9c2.1,1.9,4.5,3.5,7,4.9l0.4,0.2c0.8,0.4,1.6,0.8,2.4,1.1
		c1,0.4,2,0.8,2.9,1.3c1.4,0.6,2.8,1.3,4.1,2.1c1.3,0.7,2.3,1.8,3.1,3c0.3,0.4,0.5,0.9,0.6,1.4s0.2,1,0.3,1.5
		c0.1,0.3,0.1,0.6,0.1,0.9s0,0.6,0,1v0.5c0,0.2,0,0.5-0.1,0.7c-0.1,0.7-0.2,1.4-0.5,2.1c-0.2,0.6-0.5,1.3-0.9,1.9
		c-0.8,1.1-1.8,2-3,2.6s-2.4,0.9-3.7,1.1c-0.3,0.1-0.5,0.1-0.8,0.1h-0.6c-0.5,0-0.9,0-1.4-0.1c-0.4,0-0.8-0.1-1.1-0.2l-0.2-0.1
		l-0.2-0.1H94c-2.1-0.3-4-1.3-5.4-2.8c-0.5-0.5-1-1.1-1.4-1.8c-0.9-1.3-2.5-1.7-3.9-1.1c-0.8,0.4-1.5,1.1-1.8,2
		c-0.3,0.8-0.2,1.7,0.2,2.4c1.1,2,2.8,3.8,4.8,5c3.1,2,6.7,3,10.4,3c0.6,0,1.2,0,1.8-0.1c0.6-0.1,1.3-0.1,2-0.3
		c0.6-0.1,1.3-0.2,1.9-0.3c0.6-0.2,1.3-0.4,1.9-0.5c3-1.1,5.6-3.1,7.3-5.9c1.7-2.6,2.6-5.5,2.6-8.6c0-0.3,0-0.7,0-1
		S114.3,39.2,114.2,38.9z"/>
	
		<linearGradient id="SVGID_4_" gradientUnits="userSpaceOnUse" x1="-17.8505" y1="-10.7092" x2="285.5709" y2="68.9075" gradientTransform="matrix(1 0 0 -1 0 55.89)">
		<stop  offset="0" style="stop-color:#7CBF00"/>
		<stop  offset="1" style="stop-color:#04A51D"/>
	</linearGradient>
	<path class="st3" d="M153,1.3c-1.1,0-2,0.5-2.6,1.4l-13.7,22.5L123.2,2.8c-0.6-0.9-1.6-1.5-2.6-1.5h-0.5c-1.7,0-3.1,1.4-3.1,3.1
		c0,0.6,0.2,1.2,0.5,1.7l15.1,24.4v21.1c0.1,2.1,1.9,3.7,4,3.6c1.9-0.1,3.5-1.7,3.6-3.6V30.4L155.6,6c0.9-1.4,0.5-3.3-0.9-4.3
		C154.2,1.5,153.6,1.3,153,1.3L153,1.3z"/>
	
		<linearGradient id="SVGID_5_" gradientUnits="userSpaceOnUse" x1="-9.9138" y1="-40.9559" x2="293.5075" y2="38.6608" gradientTransform="matrix(1 0 0 -1 0 55.89)">
		<stop  offset="0" style="stop-color:#7CBF00"/>
		<stop  offset="1" style="stop-color:#04A51D"/>
	</linearGradient>
	<path class="st4" d="M266.7,5c-1.6-1-3.2-1.9-5-2.5c-1.8-0.7-3.6-1.2-5.5-1.5c-0.9-0.2-1.8-0.3-2.7-0.4s-1.8-0.1-2.7-0.1
		c-5.1,0-10.1,1.3-14.6,3.8c-4.6,2.5-8.3,6.3-10.8,10.9c-0.7,1.3-1.2,2.6-1.7,4c-0.5,1.4-0.9,2.8-1.1,4.2c-0.2,0.8-0.3,1.6-0.4,2.5
		c-0.1,0.8-0.1,1.6-0.1,2.4c0,5.1,1.4,10.1,4,14.4c2.7,4.5,6.5,8.2,11.2,10.6c1.7,0.8,3.4,1.5,5.2,2s3.6,0.8,5.5,1
		c0.5,0.1,0.9,0.1,1.4,0.1s0.9,0,1.3,0c5.6,0,11.1-1.6,15.9-4.5l0,0c4.9-2.9,8.7-7.3,10.9-12.6c0.6-1.7,1.1-3.4,1.5-5.1
		c0.3-1.7,0.5-3.5,0.5-5.3c0-4.7-1.2-9.3-3.4-13.4C273.9,11.2,270.7,7.6,266.7,5z M265.9,43.5c-3.8,4.2-9.3,6.6-15,6.5
		c-4.9,0-9.7-1.8-13.4-5c-3.8-3.2-6.4-7.5-7.4-12.4c0-0.1,0-0.3,0-0.4c0-0.1-0.1-0.3-0.1-0.4v-0.3c0-0.1,0-0.2,0-0.3
		c0-0.2-0.1-0.4-0.1-0.7c-0.1-0.3-0.1-0.5-0.1-0.8s0-0.7,0-1c0-5.3,1.9-10.5,5.3-14.6c3.4-4.3,8.3-6.9,13.7-7.5h2
		c5.7-0.1,11.2,2.3,15,6.5C274,21.6,274,35,265.9,43.5L265.9,43.5z"/>
	
		<linearGradient id="SVGID_6_" gradientUnits="userSpaceOnUse" x1="-7.0283" y1="-51.9529" x2="296.3931" y2="27.6639" gradientTransform="matrix(1 0 0 -1 0 55.89)">
		<stop  offset="0" style="stop-color:#7CBF00"/>
		<stop  offset="1" style="stop-color:#04A51D"/>
	</linearGradient>
	<path class="st5" d="M306.1,48.9h-17V5.1c0-2-1.6-3.5-3.5-3.5c-2,0-3.6,1.6-3.6,3.5v45.5c0,2.5,2.1,4.6,4.6,4.6h19.5
		c1.7-0.1,3.1-1.6,3-3.3C309,50.2,307.8,48.9,306.1,48.9L306.1,48.9z"/>
	
		<linearGradient id="SVGID_7_" gradientUnits="userSpaceOnUse" x1="-5.7128" y1="-56.9661" x2="297.7086" y2="22.6507" gradientTransform="matrix(1 0 0 -1 0 55.89)">
		<stop  offset="0" style="stop-color:#7CBF00"/>
		<stop  offset="1" style="stop-color:#04A51D"/>
	</linearGradient>
	<path class="st6" d="M338,23h-19V7.5h19c1.6-0.2,2.8-1.8,2.5-3.4c-0.2-1.3-1.2-2.4-2.5-2.5h-21.9c-2.3,0-4.2,1.9-4.2,4.2v45.9
		c-0.1,2,1.4,3.6,3.4,3.7c2,0.1,3.6-1.4,3.7-3.4c0-0.1,0-0.3,0-0.4V29h19c1.6,0.3,3.2-0.9,3.4-2.5c0.3-1.6-0.9-3.2-2.5-3.4
		C338.6,23,338.3,23,338,23L338,23z"/>
	
		<linearGradient id="SVGID_8_" gradientUnits="userSpaceOnUse" x1="-14.0705" y1="-25.1146" x2="289.3508" y2="54.5021" gradientTransform="matrix(1 0 0 -1 0 55.89)">
		<stop  offset="0" style="stop-color:#7CBF00"/>
		<stop  offset="1" style="stop-color:#04A51D"/>
	</linearGradient>
	<path class="st7" d="M217.9,30c-0.8,0.9-1.7,1.7-2.7,2.3c-2.2,1.3-4.6,2.1-7.1,2.1c-3,0.1-5.9-0.8-8.8-1.3
		c-5.1-1-10.4-2.8-15.6-1.2c-2,0.6-3.8,1.6-5.3,3c-0.8,0.8-1.6,1.6-2.2,2.5c-0.4,0.5-0.7,1-1,1.5s-0.5,1.3-0.9,1.6
		c0.8-0.6,1.5-1.4,2.4-1.9c0.8-0.6,1.7-1.1,2.7-1.5c2.5-0.9,5.2-1.3,7.8-0.9c4.7,0.4,9.3,1.6,14,2.5c1.1,0.2,2.2,0.4,3.4,0.6
		c0.4,0.1,0.8,0.1,1.2,0.1c-6,10.4-19.4,14-29.8,7.9c-10.4-6-14-19.4-7.9-29.8c6-10.4,19.4-14,29.8-7.9c1.5,0.8,2.8,1.9,4,3
		c1.3,1.2,3.4,1.2,4.6-0.1c1.2-1.3,1.2-3.4-0.1-4.6l0,0C195-3,177-2.5,166.3,8.8c-10.8,11.3-10.3,29.2,1,40s29.2,10.3,40-1
		c3-3.1,5.2-6.9,6.5-11c0-0.1,0-0.1,0-0.2c0.8-0.7,1.6-1.4,2.3-2.2c1.2-1.5,2.2-3.1,3-4.9c0.2-0.4,0.3-0.8,0.4-1.2
		C219.4,28.1,218.1,29.8,217.9,30z"/>
	
		<linearGradient id="SVGID_9_" gradientUnits="userSpaceOnUse" x1="-14.0598" y1="-25.1556" x2="289.3616" y2="54.4612" gradientTransform="matrix(1 0 0 -1 0 55.89)">
		<stop  offset="0" style="stop-color:#7CBF00"/>
		<stop  offset="1" style="stop-color:#04A51D"/>
	</linearGradient>
	<path class="st8" d="M203,28.6c-2.2-0.5-4.4-1-6.6-1.3c-0.4,0-0.7,0-1.1-0.1V17c0-0.3-0.2-0.5-0.4-0.5l0,0c-0.3,0-0.5,0.2-0.5,0.5
		l0,0v0.2l-3.9,1.8l3.9,1.8v6.5c-2.8-0.2-5.6,0.3-8.2,1.4l-1.2,0.5c-0.2,0.1-0.4,0.2-0.6,0.2c1.6-0.2,3.1-0.3,4.7-0.3
		c3.5,0.1,6.9,0.7,10.2,1.6s6.7,1.4,10.2,1.3c3.1-0.4,5.9-1.8,8.1-3.9c-0.4,0.1-0.8,0.3-1.1,0.5c-1.4,0.7-3,1.2-4.6,1.4
		c-1.7,0.1-3.5-0.1-5.2-0.4C205.5,29.2,204.2,28.9,203,28.6z"/>
</g>
</svg>
